<svg width="40" height="38" viewBox="0 0 40 38" fill="none" xmlns="http://www.w3.org/2000/svg">
<path d="M0.303223 0.722412H32.7295C36.3202 0.722412 39.2311 3.63328 39.2311 7.22401V31.0632C39.2311 34.654 36.3202 37.5648 32.7295 37.5648H0.303223V0.722412Z" fill="#FFA78D"/>
<path opacity="0.5" d="M20.3412 11.5585H18.8964C17.5343 11.5585 16.8532 11.5585 16.43 11.9816C16.0068 12.4048 16.0068 13.0859 16.0068 14.4481V15.8929V16.9765H23.2308V15.8929V14.4481C23.2308 13.0859 23.2308 12.4048 22.8077 11.9816C22.3845 11.5585 21.7034 11.5585 20.3412 11.5585Z" fill="white"/>
<path fill-rule="evenodd" clip-rule="evenodd" d="M20.6559 14.2914C20.0091 13.9387 19.2276 13.9387 18.5808 14.2914L15.1175 16.1798C14.4211 16.5596 13.9878 17.2894 13.9878 18.0826V21.6495C13.9878 22.4427 14.4211 23.1725 15.1175 23.5522L18.5808 25.4407C19.2276 25.7934 20.0091 25.7934 20.6559 25.4407L24.1192 23.5522C24.8156 23.1725 25.2489 22.4427 25.2489 21.6495V18.0826C25.2489 17.2894 24.8156 16.5596 24.1192 16.1798L20.6559 14.2914ZM19.6185 17.6989C19.4133 17.6989 19.276 17.9451 19.0015 18.4375L18.9305 18.5649C18.8525 18.7049 18.8135 18.7748 18.7527 18.821C18.6919 18.8672 18.6161 18.8843 18.4647 18.9186L18.3267 18.9498C17.7937 19.0704 17.5271 19.1307 17.4637 19.3346C17.4003 19.5385 17.582 19.751 17.9454 20.1759L18.0395 20.2859C18.1427 20.4066 18.1944 20.467 18.2176 20.5417C18.2408 20.6164 18.233 20.697 18.2174 20.8581L18.2032 21.0048C18.1482 21.5718 18.1208 21.8553 18.2868 21.9813C18.4528 22.1073 18.7023 21.9924 19.2015 21.7626L19.3306 21.7032C19.4724 21.6378 19.5433 21.6052 19.6185 21.6052C19.6937 21.6052 19.7646 21.6378 19.9064 21.7032L20.0355 21.7626C20.5346 21.9924 20.7842 22.1073 20.9502 21.9813C21.1162 21.8553 21.0887 21.5718 21.0338 21.0048L21.0196 20.8581C21.004 20.697 20.9962 20.6164 21.0194 20.5417C21.0426 20.467 21.0943 20.4066 21.1975 20.2859L21.2916 20.1759C21.655 19.751 21.8367 19.5385 21.7733 19.3346C21.7098 19.1307 21.4433 19.0704 20.9102 18.9498L20.7723 18.9186C20.6209 18.8843 20.5451 18.8672 20.4843 18.821C20.4235 18.7748 20.3845 18.7049 20.3065 18.5649L20.2355 18.4375C19.961 17.9451 19.8237 17.6989 19.6185 17.6989Z" fill="white"/>
</svg>
